<svg width="24" height="24" viewBox="0 0 24 24" fill="none" xmlns="http://www.w3.org/2000/svg">
  <path d="M7.5 2.75H16.5C19.12 2.75 21.25 4.88 21.25 7.5V16.5C21.25 19.12 19.12 21.25 16.5 21.25H7.5C4.88 21.25 2.75 19.12 2.75 16.5V7.5C2.75 4.88 4.88 2.75 7.5 2.75ZM7.44 4.25C5.66 4.25 4.25 5.66 4.25 7.44V16.56C4.25 18.34 5.66 19.75 7.44 19.75H16.56C18.34 19.75 19.75 18.34 19.75 16.56V7.44C19.75 5.66 18.34 4.25 16.56 4.25H7.44Z" fill="currentColor"/>
  <path d="M12 7.3C9.42 7.3 7.3 9.42 7.3 12C7.3 14.58 9.42 16.7 12 16.7C14.58 16.7 16.7 14.58 16.7 12C16.7 9.42 14.58 7.3 12 7.3ZM12 15.15C10.28 15.15 8.85 13.72 8.85 12C8.85 10.28 10.28 8.85 12 8.85C13.72 8.85 15.15 10.28 15.15 12C15.15 13.72 13.72 15.15 12 15.15Z" fill="currentColor"/>
  <path d="M17.1 6.9C17.1 7.45 16.65 7.9 16.1 7.9C15.55 7.9 15.1 7.45 15.1 6.9C15.1 6.35 15.55 5.9 16.1 5.9C16.65 5.9 17.1 6.35 17.1 6.9Z" fill="currentColor"/>
</svg>