<svg width="24" height="24" viewBox="0 0 24 24" fill="none" xmlns="http://www.w3.org/2000/svg">
  <path d="M6.94 6.5C6.94 7.60457 6.04457 8.5 4.94 8.5C3.83543 8.5 2.94 7.60457 2.94 6.5C2.94 5.39543 3.83543 4.5 4.94 4.5C6.04457 4.5 6.94 5.39543 6.94 6.5Z" fill="currentColor"/>
  <path d="M3.5 9.75H6.4V19.5H3.5V9.75Z" fill="currentColor"/>
  <path d="M9.15 9.75H11.95V11.08H11.99C12.38 10.34 13.35 9.5 14.78 9.5C17.74 9.5 18.28 11.44 18.28 14.01V19.5H15.39V14.63C15.39 13.47 15.37 11.98 13.79 11.98C12.19 11.98 11.95 13.23 11.95 14.54V19.5H9.15V9.75Z" fill="currentColor"/>
</svg>