<svg width="24" height="24" viewBox="0 0 24 24" fill="none" xmlns="http://www.w3.org/2000/svg">
  <path d="M18.9 7.25C18.91 7.41 18.91 7.57 18.91 7.73C18.91 12.6 15.2 18.21 8.42 18.21C6.36 18.21 4.45 17.61 2.84 16.57C3.12 16.6 3.39 16.61 3.68 16.61C5.37 16.61 6.94 16.03 8.19 15.05C6.61 15.02 5.28 13.97 4.82 12.52C5.04 12.55 5.25 12.56 5.48 12.56C5.79 12.56 6.1 12.52 6.38 12.44C4.73 12.1 3.49 10.63 3.49 8.85V8.8C3.98 9.07 4.54 9.24 5.13 9.26C4.15 8.61 3.51 7.5 3.51 6.24C3.51 5.57 3.69 4.95 4.01 4.42C5.79 6.61 8.46 8.06 11.48 8.22C11.42 7.96 11.39 7.69 11.39 7.41C11.39 5.47 12.97 3.89 14.91 3.89C15.92 3.89 16.83 4.31 17.47 4.99C18.26 4.83 19 4.55 19.67 4.18C19.41 5 18.86 5.69 18.14 6.13C18.85 6.05 19.53 5.86 20.16 5.58C19.7 6.29 19.11 6.91 18.43 7.38C18.9 7.33 19.36 7.24 19.8 7.09C19.47 7.52 19.07 7.89 18.9 7.25Z" fill="currentColor"/>
</svg>