<svg width="796" height="122" viewBox="0 0 796 122" fill="none" xmlns="http://www.w3.org/2000/svg">
<path d="M0 22C0 10.9543 8.95431 2 20 2H100C111.046 2 120 10.9543 120 22V102C120 113.046 111.046 122 100 122H20C8.95431 122 0 113.046 0 102V22Z" fill="url(#paint0_linear_1173_237)"/>
<path d="M57.0653 86.0211C46.9903 84.5722 38.6042 75.511 37.1215 65.4697C35.302 53.3393 42.715 42.6578 53.3965 39.3219C55.5531 38.6817 57.0694 36.761 57.0694 34.5034V34.436C57.0653 30.4232 53.8009 28.6067 50.5661 29.5839C35.3694 34.2339 24.7552 49.3295 27.0465 66.5143C29.0346 81.273 40.9629 93.2012 55.7216 95.1893C66.302 96.6045 76.0737 93.1338 83.1161 86.6643C85.6096 84.373 82.3371 80.9668 82.24 78.611C80.6523 79.2819 78.9675 79.4505 77.2827 80.9668C72.3295 85.482 64.5458 87.1331 57.0653 86.0211Z" fill="white"/>
<path d="M63.8042 33.8751V33.8077C63.8042 30.4381 67.0727 27.9783 70.2738 28.9555C84.089 33.1675 94.1303 46.0392 94.1303 61.2023C94.1303 63.7631 93.827 66.2903 93.2542 68.7164C92.4792 71.9512 88.7053 73.4675 85.8075 71.7827L85.7738 71.749C83.8531 70.6034 82.977 68.3794 83.4488 66.2229C83.8194 64.6055 84.0216 62.9544 84.0216 61.2023C84.0216 50.6218 77.0466 41.6925 67.4433 38.6936C65.3205 38.0197 63.8042 36.1327 63.8042 33.8751Z" fill="white"/>
<path d="M82.1938 78.988L82.2516 79.0228C85.1377 80.7619 85.5576 84.8309 83.0685 87.0684C72.3306 96.7275 56.1233 98.6848 43.1358 90.8589C40.9424 89.5372 38.9343 87.9731 37.152 86.2304C34.7813 83.897 35.4304 79.882 38.369 78.2695L38.4153 78.2581C40.3878 77.2043 42.7247 77.7655 44.3283 79.2826C45.5223 80.4348 46.8523 81.2963 48.3531 82.2006C57.4154 87.6613 68.6635 86.2957 76.1885 79.6181C77.8613 78.1477 80.2602 77.8228 82.1938 78.988Z" fill="white"/>
<path d="M33.478 80.9674L40.2172 75.9131L42.4074 77.5979L44.3617 79.2827L36.8476 86.0218L33.478 80.9674Z" fill="white"/>
<path d="M219.472 25.456V94H207.376V64.336H174.352V94H162.256V25.456H174.352V54.256H207.376V25.456H219.472ZM278.893 85.552C279.469 85.552 280.429 85.456 281.101 85.168V94C280.141 94.384 277.741 94.576 275.629 94.576C270.445 94.576 267.085 92.944 265.933 88.624H265.549C262.093 93.232 255.469 95.248 249.613 95.248C240.589 95.248 233.005 89.488 233.005 80.08C233.005 69.136 240.397 65.104 253.645 63.664C262.861 62.608 265.357 60.976 265.357 57.904C265.357 53.68 262.669 50.8 256.045 50.8C251.245 50.8 246.829 53.392 245.197 58.96L234.829 56.944C236.941 47.728 245.293 42.16 256.333 42.16C271.021 42.16 276.589 49.072 276.589 58V82.576C276.589 85.072 277.645 85.552 278.893 85.552ZM265.357 74.128V68.464C263.821 70.096 258.637 70.864 253.549 71.536C248.653 72.208 244.429 74.704 244.429 79.888C244.429 84.208 247.405 86.8 252.109 86.8C257.965 86.8 265.357 83.056 265.357 74.128ZM318.712 95.248C311.704 95.248 306.424 92.656 303.544 88.24H303.16V111.664H291.928V43.312H302.584V49.84H302.968C305.944 44.752 311.608 42.16 318.616 42.16C331.864 42.16 341.464 52.624 341.464 68.656C341.464 84.784 331.864 95.248 318.712 95.248ZM316.12 50.992C307.864 50.992 302.488 57.52 302.488 68.656C302.488 79.888 307.864 86.32 316.12 86.32C324.568 86.32 329.944 79.888 329.944 68.656C329.944 57.52 324.568 50.992 316.12 50.992ZM381.399 95.248C374.391 95.248 369.111 92.656 366.231 88.24H365.847V111.664H354.615V43.312H365.271V49.84H365.655C368.631 44.752 374.295 42.16 381.303 42.16C394.551 42.16 404.151 52.624 404.151 68.656C404.151 84.784 394.551 95.248 381.399 95.248ZM378.807 50.992C370.551 50.992 365.175 57.52 365.175 68.656C365.175 79.888 370.551 86.32 378.807 86.32C387.255 86.32 392.631 79.888 392.631 68.656C392.631 57.52 387.255 50.992 378.807 50.992ZM416.919 24.496H428.247V35.536H416.919V24.496ZM416.919 43.312H428.247V94H416.919V43.312ZM477.972 77.968L489.396 79.12C487.188 86.416 480.852 95.248 465.492 95.248C450.708 95.248 441.012 84.688 441.012 68.752C441.012 52.72 450.324 42.16 465.396 42.16C480.564 42.16 491.124 52.816 489.78 71.248H452.436C452.628 80.08 457.62 86.608 465.492 86.608C473.748 86.608 476.82 81.424 477.972 77.968ZM465.396 50.704C457.428 50.704 453.3 56.56 452.628 63.28H478.356C477.684 56.56 473.556 50.704 465.396 50.704ZM513.678 43.312V50.992H514.062C516.654 46 521.934 42.16 529.23 42.16C530.67 42.16 532.206 42.352 533.358 42.64V53.296C532.014 53.104 530.19 52.912 528.27 52.912C520.206 52.912 514.254 56.656 514.254 67.6V94.096H503.022V43.312H513.678ZM544.334 24.496H555.566V94H544.334V24.496ZM605.753 77.968L617.177 79.12C614.969 86.416 608.633 95.248 593.273 95.248C578.489 95.248 568.793 84.688 568.793 68.752C568.793 52.72 578.105 42.16 593.177 42.16C608.345 42.16 618.905 52.816 617.561 71.248H580.217C580.409 80.08 585.401 86.608 593.273 86.608C601.529 86.608 604.601 81.424 605.753 77.968ZM593.177 50.704C585.209 50.704 581.081 56.56 580.409 63.28H606.137C605.465 56.56 601.337 50.704 593.177 50.704ZM673.331 85.552C673.907 85.552 674.867 85.456 675.539 85.168V94C674.579 94.384 672.179 94.576 670.067 94.576C664.883 94.576 661.523 92.944 660.371 88.624H659.987C656.531 93.232 649.907 95.248 644.051 95.248C635.027 95.248 627.443 89.488 627.443 80.08C627.443 69.136 634.835 65.104 648.083 63.664C657.299 62.608 659.795 60.976 659.795 57.904C659.795 53.68 657.107 50.8 650.483 50.8C645.683 50.8 641.267 53.392 639.635 58.96L629.267 56.944C631.379 47.728 639.731 42.16 650.771 42.16C665.459 42.16 671.027 49.072 671.027 58V82.576C671.027 85.072 672.083 85.552 673.331 85.552ZM659.795 74.128V68.464C658.259 70.096 653.075 70.864 647.987 71.536C643.091 72.208 638.867 74.704 638.867 79.888C638.867 84.208 641.843 86.8 646.547 86.8C652.403 86.8 659.795 83.056 659.795 74.128ZM705.949 42.16C713.053 42.16 718.429 44.944 721.213 49.168H721.597V24.592H732.829V94.096H722.077V87.568H721.693C718.909 92.464 713.053 95.248 706.045 95.248C692.797 95.248 683.293 84.784 683.293 68.656C683.293 52.624 692.797 42.16 705.949 42.16ZM708.541 86.32C716.893 86.32 722.269 79.888 722.269 68.656C722.269 57.52 716.893 50.992 708.541 50.992C700.093 50.992 694.717 57.52 694.717 68.656C694.717 79.888 700.093 86.32 708.541 86.32ZM789.299 56.752L778.931 58.576C777.587 52.912 772.979 50.224 767.795 50.224C762.323 50.224 758.579 52.624 758.579 57.04C758.579 61.168 762.707 62.224 767.987 63.184L773.075 63.952C781.907 65.488 790.451 68.176 790.451 79.216C790.451 89.968 780.851 95.248 768.275 95.248C755.123 95.248 746.675 88.816 744.947 79.312L755.315 77.488C756.851 84.208 761.651 87.184 768.467 87.184C774.611 87.184 778.931 84.4 778.931 79.6C778.931 75.472 774.803 74.032 768.755 72.976L763.475 72.112C755.507 70.768 747.155 67.984 747.155 57.328C747.155 48.304 755.987 42.16 767.795 42.16C779.219 42.16 787.859 48.688 789.299 56.752Z" fill="black"/>
<defs>
<linearGradient id="paint0_linear_1173_237" x1="12.5" y1="62" x2="109" y2="62" gradientUnits="userSpaceOnUse">
<stop stop-color="#314DBC"/>
<stop offset="1" stop-color="#102471"/>
</linearGradient>
</defs>
</svg>
